<svg width="178" height="42" viewBox="0 0 178 42" fill="none" xmlns="http://www.w3.org/2000/svg">
<ellipse cx="38.0734" cy="21.273" rx="17.9357" ry="20.7144" fill="#1DAEFF"/>
<ellipse cx="42.2419" cy="21.7782" rx="9.22045" ry="12.8834" fill="white"/>
<ellipse cx="42.2413" cy="21.652" rx="4.58607" ry="6.93401" fill="#1DAEFF"/>
<ellipse cx="42.2413" cy="21.2731" rx="2.08409" ry="2.72281" fill="white"/>
<path d="M16.8945 14.3235L5.56062 14.3235" stroke="#1DAEFF" stroke-width="2.83962" stroke-linecap="round"/>
<path d="M16.8945 28.2227H5.56062" stroke="#1DAEFF" stroke-width="2.83962" stroke-linecap="round"/>
<path d="M14.4873 21.2729H1.83341" stroke="#1DAEFF" stroke-width="2.83962" stroke-linecap="round"/>
<path d="M69.62 30.7007L73.402 11.1627H75.7465L80.7566 24.3229L85.7388 11.1627H88.0834L91.8793 30.7007H88.9207L86.3947 17.6242L81.7196 29.961H79.7658L75.1046 17.6242L72.5786 30.7007H69.62ZM95.1426 30.7007V11.1627H98.0453V30.7007H95.1426ZM123.295 11.1627V14.0655H117.071V30.7007H114.168V14.0655H107.958V11.1627H123.295ZM134.828 16.745H137.731V30.7007H134.814L134.703 28.6771C134.293 29.3935 133.74 29.9703 133.042 30.4076C132.344 30.8449 131.521 31.0635 130.572 31.0635C129.549 31.0635 128.586 30.8728 127.683 30.4913C126.781 30.1006 125.985 29.561 125.297 28.8725C124.617 28.184 124.087 27.3932 123.706 26.5C123.324 25.5976 123.134 24.63 123.134 23.5972C123.134 22.6017 123.32 21.6667 123.692 20.7921C124.064 19.9083 124.58 19.1361 125.241 18.4755C125.901 17.8149 126.664 17.2986 127.53 16.9264C128.404 16.545 129.339 16.3542 130.335 16.3542C131.349 16.3542 132.242 16.5868 133.014 17.052C133.796 17.5079 134.442 18.094 134.954 18.8104L134.828 16.745ZM130.502 28.2584C131.321 28.2584 132.037 28.0584 132.651 27.6583C133.265 27.249 133.74 26.7001 134.075 26.0116C134.419 25.3231 134.591 24.5602 134.591 23.7228C134.591 22.8762 134.419 22.1086 134.075 21.4201C133.731 20.7317 133.251 20.1874 132.637 19.7873C132.033 19.378 131.321 19.1733 130.502 19.1733C129.693 19.1733 128.953 19.378 128.283 19.7873C127.613 20.1967 127.083 20.7456 126.692 21.4341C126.301 22.1226 126.106 22.8855 126.106 23.7228C126.106 24.5695 126.306 25.337 126.706 26.0255C127.116 26.7047 127.651 27.249 128.311 27.6583C128.981 28.0584 129.711 28.2584 130.502 28.2584ZM140.625 30.7007V9.76714H143.528V30.7007H140.625ZM146.867 30.7007V9.76714H149.77V30.7007H146.867ZM159.059 31.0635C157.775 31.0635 156.602 30.7332 155.542 30.0727C154.49 29.4121 153.648 28.5282 153.016 27.4211C152.392 26.3046 152.081 25.0719 152.081 23.7228C152.081 22.6994 152.262 21.7458 152.625 20.8619C152.988 19.9688 153.486 19.1872 154.118 18.5174C154.76 17.8382 155.504 17.3079 156.351 16.9264C157.198 16.545 158.1 16.3542 159.059 16.3542C160.128 16.3542 161.11 16.5775 162.003 17.0241C162.896 17.4614 163.659 18.0708 164.292 18.8523C164.925 19.6245 165.39 20.5177 165.687 21.5318C165.985 22.5366 166.074 23.6065 165.953 24.7416H155.193C155.314 25.3836 155.546 25.9651 155.891 26.4861C156.244 26.9978 156.691 27.4025 157.23 27.7002C157.779 27.9979 158.389 28.1514 159.059 28.1607C159.766 28.1607 160.408 27.984 160.984 27.6304C161.571 27.2769 162.05 26.7884 162.422 26.1651L165.367 26.8489C164.808 28.0863 163.966 29.1004 162.841 29.8913C161.715 30.6728 160.454 31.0635 159.059 31.0635ZM155.095 22.5226H163.022C162.929 21.8528 162.692 21.248 162.31 20.7084C161.938 20.1595 161.468 19.7269 160.901 19.4105C160.342 19.0849 159.728 18.9221 159.059 18.9221C158.398 18.9221 157.784 19.0802 157.216 19.3966C156.658 19.7129 156.193 20.1455 155.821 20.6945C155.458 21.2341 155.216 21.8435 155.095 22.5226ZM168.264 30.7007V16.745H171.167V18.2243C171.65 17.6475 172.246 17.1916 172.953 16.8566C173.66 16.5217 174.423 16.3542 175.242 16.3542C175.763 16.3542 176.279 16.424 176.791 16.5636L175.632 19.4943C175.27 19.3547 174.907 19.2849 174.544 19.2849C173.93 19.2849 173.367 19.4384 172.855 19.7455C172.344 20.0432 171.934 20.4479 171.627 20.9596C171.32 21.4713 171.167 22.0389 171.167 22.6622V30.7007H168.264Z" fill="#1DAEFF"/>
</svg>
